<?xml version="1.0" encoding="UTF-8" standalone="no"?>
<!DOCTYPE svg PUBLIC "-//W3C//DTD SVG 1.1//EN"
 "http://www.w3.org/Graphics/SVG/1.1/DTD/svg11.dtd">
<!-- Generated by graphviz version 14.1.3 (20260303.0454)
 -->
<!-- Title: rtl_ai_arch Pages: 1 -->
<svg width="2184pt" height="313pt"
 viewBox="0.00 0.00 2184.00 313.00" xmlns="http://www.w3.org/2000/svg" xmlns:xlink="http://www.w3.org/1999/xlink">
<g id="graph0" class="graph" transform="scale(1 1) rotate(0) translate(4 309)">
<title>rtl_ai_arch</title>
<polygon fill="white" stroke="none" points="-4,4 -4,-309 2180.25,-309 2180.25,4 -4,4"/>
<g id="clust1" class="cluster">
<title>cluster_inputs</title>
<path fill="none" stroke="#90caf9" stroke-dasharray="5,2" d="M20,-8C20,-8 118.75,-8 118.75,-8 124.75,-8 130.75,-14 130.75,-20 130.75,-20 130.75,-285 130.75,-285 130.75,-291 124.75,-297 118.75,-297 118.75,-297 20,-297 20,-297 14,-297 8,-291 8,-285 8,-285 8,-20 8,-20 8,-14 14,-8 20,-8"/>
<text xml:space="preserve" text-anchor="middle" x="32.12" y="-281.6" font-family="Helvetica,sans-Serif" font-size="12.00">Inputs</text>
</g>
<!-- origin -->
<g id="node1" class="node">
<title>origin</title>
<path fill="#e3f2fd" stroke="#424242" stroke-width="1.2" d="M84.38,-268C84.38,-268 54.38,-268 54.38,-268 48.38,-268 42.38,-262 42.38,-256 42.38,-256 42.38,-244 42.38,-244 42.38,-238 48.38,-232 54.38,-232 54.38,-232 84.38,-232 84.38,-232 90.38,-232 96.38,-238 96.38,-244 96.38,-244 96.38,-256 96.38,-256 96.38,-262 90.38,-268 84.38,-268"/>
<text xml:space="preserve" text-anchor="middle" x="69.38" y="-245.55" font-family="Helvetica,sans-Serif" font-size="11.00">origin.v</text>
</g>
<!-- run_surelog -->
<g id="node6" class="node">
<title>run_surelog</title>
<path fill="#fff8e1" stroke="#424242" stroke-width="1.2" d="M220.75,-160C220.75,-160 171.75,-160 171.75,-160 165.75,-160 159.75,-154 159.75,-148 159.75,-148 159.75,-136 159.75,-136 159.75,-130 165.75,-124 171.75,-124 171.75,-124 220.75,-124 220.75,-124 226.75,-124 232.75,-130 232.75,-136 232.75,-136 232.75,-148 232.75,-148 232.75,-154 226.75,-160 220.75,-160"/>
<text xml:space="preserve" text-anchor="middle" x="196.25" y="-137.55" font-family="Helvetica,sans-Serif" font-size="11.00">run_surelog</text>
</g>
<!-- origin&#45;&gt;run_surelog -->
<g id="edge1" class="edge">
<title>origin&#45;&gt;run_surelog</title>
<path fill="none" stroke="#616161" stroke-width="1.1" d="M96.85,-241.34C107.99,-236.92 120.68,-230.81 130.75,-223 150.16,-207.95 167.23,-185.89 178.92,-168.59"/>
<polygon fill="#616161" stroke="#616161" stroke-width="1.1" points="181.25,-170.15 183.3,-161.92 176.57,-167.07 181.25,-170.15"/>
</g>
<!-- algo_o -->
<g id="node2" class="node">
<title>algo_o</title>
<path fill="#e3f2fd" stroke="#424242" stroke-width="1.2" d="M110.75,-214C110.75,-214 28,-214 28,-214 22,-214 16,-208 16,-202 16,-202 16,-190 16,-190 16,-184 22,-178 28,-178 28,-178 110.75,-178 110.75,-178 116.75,-178 122.75,-184 122.75,-190 122.75,-190 122.75,-202 122.75,-202 122.75,-208 116.75,-214 110.75,-214"/>
<text xml:space="preserve" text-anchor="middle" x="69.38" y="-191.55" font-family="Helvetica,sans-Serif" font-size="11.00">algorithm_origin.py</text>
</g>
<!-- algo_o&#45;&gt;run_surelog -->
<g id="edge2" class="edge">
<title>algo_o&#45;&gt;run_surelog</title>
<path fill="none" stroke="#616161" stroke-width="1.1" d="M113.35,-177.42C125.39,-172.21 138.49,-166.54 150.62,-161.3"/>
<polygon fill="#616161" stroke="#616161" stroke-width="1.1" points="151.49,-163.97 157.72,-158.23 149.27,-158.83 151.49,-163.97"/>
</g>
<!-- algo_n -->
<g id="node3" class="node">
<title>algo_n</title>
<path fill="#e3f2fd" stroke="#424242" stroke-width="1.2" d="M107.38,-160C107.38,-160 31.38,-160 31.38,-160 25.38,-160 19.38,-154 19.38,-148 19.38,-148 19.38,-136 19.38,-136 19.38,-130 25.38,-124 31.38,-124 31.38,-124 107.38,-124 107.38,-124 113.38,-124 119.38,-130 119.38,-136 119.38,-136 119.38,-148 119.38,-148 119.38,-154 113.38,-160 107.38,-160"/>
<text xml:space="preserve" text-anchor="middle" x="69.38" y="-137.55" font-family="Helvetica,sans-Serif" font-size="11.00">algorithm_new.py</text>
</g>
<!-- algo_n&#45;&gt;run_surelog -->
<g id="edge3" class="edge">
<title>algo_n&#45;&gt;run_surelog</title>
<path fill="none" stroke="#616161" stroke-width="1.1" d="M119.73,-142C129.65,-142 140.03,-142 149.81,-142"/>
<polygon fill="#616161" stroke="#616161" stroke-width="1.1" points="149.68,-144.8 157.68,-142 149.68,-139.2 149.68,-144.8"/>
</g>
<!-- uarch_o -->
<g id="node4" class="node">
<title>uarch_o</title>
<path fill="#e3f2fd" stroke="#424242" stroke-width="1.2" d="M102.88,-106C102.88,-106 35.88,-106 35.88,-106 29.88,-106 23.88,-100 23.88,-94 23.88,-94 23.88,-82 23.88,-82 23.88,-76 29.88,-70 35.88,-70 35.88,-70 102.88,-70 102.88,-70 108.88,-70 114.88,-76 114.88,-82 114.88,-82 114.88,-94 114.88,-94 114.88,-100 108.88,-106 102.88,-106"/>
<text xml:space="preserve" text-anchor="middle" x="69.38" y="-83.55" font-family="Helvetica,sans-Serif" font-size="11.00">uArch_origin.txt</text>
</g>
<!-- uarch_o&#45;&gt;run_surelog -->
<g id="edge4" class="edge">
<title>uarch_o&#45;&gt;run_surelog</title>
<path fill="none" stroke="#616161" stroke-width="1.1" d="M113.35,-106.58C125.39,-111.79 138.49,-117.46 150.62,-122.7"/>
<polygon fill="#616161" stroke="#616161" stroke-width="1.1" points="149.27,-125.17 157.72,-125.77 151.49,-120.03 149.27,-125.17"/>
</g>
<!-- uarch_n -->
<g id="node5" class="node">
<title>uarch_n</title>
<path fill="#e3f2fd" stroke="#424242" stroke-width="1.2" d="M99.5,-52C99.5,-52 39.25,-52 39.25,-52 33.25,-52 27.25,-46 27.25,-40 27.25,-40 27.25,-28 27.25,-28 27.25,-22 33.25,-16 39.25,-16 39.25,-16 99.5,-16 99.5,-16 105.5,-16 111.5,-22 111.5,-28 111.5,-28 111.5,-40 111.5,-40 111.5,-46 105.5,-52 99.5,-52"/>
<text xml:space="preserve" text-anchor="middle" x="69.38" y="-29.55" font-family="Helvetica,sans-Serif" font-size="11.00">uArch_new.txt</text>
</g>
<!-- uarch_n&#45;&gt;run_surelog -->
<g id="edge5" class="edge">
<title>uarch_n&#45;&gt;run_surelog</title>
<path fill="none" stroke="#616161" stroke-width="1.1" d="M111.83,-49.34C118.47,-52.68 125.03,-56.57 130.75,-61 150.16,-76.05 167.23,-98.11 178.92,-115.41"/>
<polygon fill="#616161" stroke="#616161" stroke-width="1.1" points="176.57,-116.93 183.3,-122.08 181.25,-113.85 176.57,-116.93"/>
</g>
<!-- uhdm_extract -->
<g id="node7" class="node">
<title>uhdm_extract</title>
<path fill="#fff8e1" stroke="#424242" stroke-width="1.2" d="M339,-160C339,-160 281.75,-160 281.75,-160 275.75,-160 269.75,-154 269.75,-148 269.75,-148 269.75,-136 269.75,-136 269.75,-130 275.75,-124 281.75,-124 281.75,-124 339,-124 339,-124 345,-124 351,-130 351,-136 351,-136 351,-148 351,-148 351,-154 345,-160 339,-160"/>
<text xml:space="preserve" text-anchor="middle" x="310.38" y="-137.55" font-family="Helvetica,sans-Serif" font-size="11.00">uhdm_extract</text>
</g>
<!-- run_surelog&#45;&gt;uhdm_extract -->
<g id="edge6" class="edge">
<title>run_surelog&#45;&gt;uhdm_extract</title>
<path fill="none" stroke="#616161" stroke-width="1.1" d="M233.34,-142C241.81,-142 250.97,-142 259.9,-142"/>
<polygon fill="#616161" stroke="#616161" stroke-width="1.1" points="259.8,-144.8 267.8,-142 259.8,-139.2 259.8,-144.8"/>
</g>
<!-- build_graph -->
<g id="node8" class="node">
<title>build_graph</title>
<path fill="#fff8e1" stroke="#424242" stroke-width="1.2" d="M448.25,-160C448.25,-160 400,-160 400,-160 394,-160 388,-154 388,-148 388,-148 388,-136 388,-136 388,-130 394,-124 400,-124 400,-124 448.25,-124 448.25,-124 454.25,-124 460.25,-130 460.25,-136 460.25,-136 460.25,-148 460.25,-148 460.25,-154 454.25,-160 448.25,-160"/>
<text xml:space="preserve" text-anchor="middle" x="424.12" y="-137.55" font-family="Helvetica,sans-Serif" font-size="11.00">build_graph</text>
</g>
<!-- uhdm_extract&#45;&gt;build_graph -->
<g id="edge7" class="edge">
<title>uhdm_extract&#45;&gt;build_graph</title>
<path fill="none" stroke="#616161" stroke-width="1.1" d="M351.4,-142C360.05,-142 369.25,-142 378.07,-142"/>
<polygon fill="#616161" stroke="#616161" stroke-width="1.1" points="377.79,-144.8 385.79,-142 377.79,-139.2 377.79,-144.8"/>
</g>
<!-- build_artifacts -->
<g id="node9" class="node">
<title>build_artifacts</title>
<path fill="#ede7f6" stroke="#424242" stroke-width="1.2" d="M805,-160C805,-160 509.25,-160 509.25,-160 503.25,-160 497.25,-154 497.25,-148 497.25,-148 497.25,-136 497.25,-136 497.25,-130 503.25,-124 509.25,-124 509.25,-124 805,-124 805,-124 811,-124 817,-130 817,-136 817,-136 817,-148 817,-148 817,-154 811,-160 805,-160"/>
<text xml:space="preserve" text-anchor="middle" x="657.12" y="-143.55" font-family="Helvetica,sans-Serif" font-size="11.00">build/ artifacts</text>
<text xml:space="preserve" text-anchor="middle" x="657.12" y="-131.55" font-family="Helvetica,sans-Serif" font-size="11.00">rtl_ast.json | causal_graph.json | pseudo_diff.json | uarch_*.json</text>
</g>
<!-- build_graph&#45;&gt;build_artifacts -->
<g id="edge8" class="edge">
<title>build_graph&#45;&gt;build_artifacts</title>
<path fill="none" stroke="#616161" stroke-width="1.1" d="M460.71,-142C468.77,-142 477.84,-142 487.56,-142"/>
<polygon fill="#616161" stroke="#616161" stroke-width="1.1" points="487.39,-144.8 495.39,-142 487.39,-139.2 487.39,-144.8"/>
</g>
<!-- ragdb -->
<g id="node10" class="node">
<title>ragdb</title>
<path fill="#f3e5f5" stroke="#424242" stroke-width="1.2" d="M952.12,-214C952.12,-214 892.62,-214 892.62,-214 886.62,-214 880.62,-208 880.62,-202 880.62,-202 880.62,-190 880.62,-190 880.62,-184 886.62,-178 892.62,-178 892.62,-178 952.12,-178 952.12,-178 958.12,-178 964.12,-184 964.12,-190 964.12,-190 964.12,-202 964.12,-202 964.12,-208 958.12,-214 952.12,-214"/>
<text xml:space="preserve" text-anchor="middle" x="922.38" y="-197.55" font-family="Helvetica,sans-Serif" font-size="11.00">rag.db</text>
<text xml:space="preserve" text-anchor="middle" x="922.38" y="-185.55" font-family="Helvetica,sans-Serif" font-size="11.00">(SQLite RAG)</text>
</g>
<!-- build_artifacts&#45;&gt;ragdb -->
<g id="edge9" class="edge">
<title>build_artifacts&#45;&gt;ragdb</title>
<path fill="none" stroke="#616161" stroke-width="1.1" d="M748.72,-160.58C789.5,-168.95 836.13,-178.51 870.64,-185.59"/>
<polygon fill="#616161" stroke="#616161" stroke-width="1.1" points="870,-188.32 878.4,-187.19 871.13,-182.83 870,-188.32"/>
</g>
<!-- analysis_plan -->
<g id="node11" class="node">
<title>analysis_plan</title>
<path fill="#fef9e7" stroke="#424242" stroke-width="1.2" d="M978.75,-160C978.75,-160 866,-160 866,-160 860,-160 854,-154 854,-148 854,-148 854,-136 854,-136 854,-130 860,-124 866,-124 866,-124 978.75,-124 978.75,-124 984.75,-124 990.75,-130 990.75,-136 990.75,-136 990.75,-148 990.75,-148 990.75,-154 984.75,-160 978.75,-160"/>
<text xml:space="preserve" text-anchor="middle" x="922.38" y="-143.55" font-family="Helvetica,sans-Serif" font-size="11.00">Analysis plan / findings</text>
<text xml:space="preserve" text-anchor="middle" x="922.38" y="-131.55" font-family="Helvetica,sans-Serif" font-size="11.00">(bundle.json, pseudo diff)</text>
</g>
<!-- build_artifacts&#45;&gt;analysis_plan -->
<g id="edge11" class="edge">
<title>build_artifacts&#45;&gt;analysis_plan</title>
<path fill="none" stroke="#616161" stroke-width="1.1" d="M817.33,-142C826.46,-142 835.4,-142 843.97,-142"/>
<polygon fill="#616161" stroke="#616161" stroke-width="1.1" points="843.81,-144.8 851.81,-142 843.81,-139.2 843.81,-144.8"/>
</g>
<!-- neo4j_ingest -->
<g id="node13" class="node">
<title>neo4j_ingest</title>
<path fill="#e8eaf6" stroke="#424242" stroke-width="1.2" d="M955.88,-106C955.88,-106 888.88,-106 888.88,-106 882.88,-106 876.88,-100 876.88,-94 876.88,-94 876.88,-82 876.88,-82 876.88,-76 882.88,-70 888.88,-70 888.88,-70 955.88,-70 955.88,-70 961.88,-70 967.88,-76 967.88,-82 967.88,-82 967.88,-94 967.88,-94 967.88,-100 961.88,-106 955.88,-106"/>
<text xml:space="preserve" text-anchor="middle" x="922.38" y="-83.55" font-family="Helvetica,sans-Serif" font-size="11.00">neo4j_ingest.py</text>
</g>
<!-- build_artifacts&#45;&gt;neo4j_ingest -->
<g id="edge10" class="edge">
<title>build_artifacts&#45;&gt;neo4j_ingest</title>
<path fill="none" stroke="#616161" stroke-width="1.1" d="M748.72,-123.42C788.15,-115.33 833.03,-106.12 867.15,-99.12"/>
<polygon fill="#616161" stroke="#616161" stroke-width="1.1" points="867.57,-101.9 874.84,-97.55 866.44,-96.41 867.57,-101.9"/>
</g>
<!-- orchestrator -->
<g id="node15" class="node">
<title>orchestrator</title>
<path fill="#e8f5e9" stroke="#2e7d32" stroke-width="1.5" d="M1818.5,-170C1818.5,-170 1590.5,-170 1590.5,-170 1584.5,-170 1578.5,-164 1578.5,-158 1578.5,-158 1578.5,-126 1578.5,-126 1578.5,-120 1584.5,-114 1590.5,-114 1590.5,-114 1818.5,-114 1818.5,-114 1824.5,-114 1830.5,-120 1830.5,-126 1830.5,-126 1830.5,-158 1830.5,-158 1830.5,-164 1824.5,-170 1818.5,-170"/>
<text xml:space="preserve" text-anchor="middle" x="1704.5" y="-155.55" font-family="Helvetica,sans-Serif" font-size="11.00">orchestrator/flow.py</text>
<text xml:space="preserve" text-anchor="middle" x="1704.5" y="-143.55" font-family="Helvetica,sans-Serif" font-size="11.00">Claude LLM</text>
<text xml:space="preserve" text-anchor="middle" x="1704.5" y="-131.55" font-family="Helvetica,sans-Serif" font-size="11.00">## Graph Context (from Neo4j)</text>
<text xml:space="preserve" text-anchor="middle" x="1704.5" y="-119.55" font-family="Helvetica,sans-Serif" font-size="11.00">+ RAG context + analysis guidance</text>
</g>
<!-- ragdb&#45;&gt;orchestrator -->
<g id="edge14" class="edge">
<title>ragdb&#45;&gt;orchestrator</title>
<path fill="none" stroke="#616161" stroke-width="1.1" d="M964.41,-193.92C1065.69,-188.68 1335.69,-174.06 1560.5,-156 1563.09,-155.79 1565.71,-155.58 1568.35,-155.36"/>
<polygon fill="#616161" stroke="#616161" stroke-width="1.1" points="1568.57,-158.15 1576.31,-154.68 1568.1,-152.57 1568.57,-158.15"/>
<text xml:space="preserve" text-anchor="middle" x="1279" y="-180.09" font-family="Helvetica,sans-Serif" font-size="10.00">RAG context</text>
</g>
<!-- analysis_plan&#45;&gt;orchestrator -->
<g id="edge15" class="edge">
<title>analysis_plan&#45;&gt;orchestrator</title>
<path fill="none" stroke="#616161" stroke-width="1.1" d="M991.24,-142C1119.61,-142 1400.14,-142 1568.29,-142"/>
<polygon fill="#616161" stroke="#616161" stroke-width="1.1" points="1568.29,-144.8 1576.29,-142 1568.29,-139.2 1568.29,-144.8"/>
<text xml:space="preserve" text-anchor="middle" x="1279" y="-143.75" font-family="Helvetica,sans-Serif" font-size="10.00">Findings + plan</text>
</g>
<!-- neo4j -->
<g id="node12" class="node">
<title>neo4j</title>
<path fill="#e8eaf6" stroke="#5c6bc0" stroke-width="1.6" d="M1207.75,-111C1207.75,-111 1117.5,-111 1117.5,-111 1111.5,-111 1105.5,-105 1105.5,-99 1105.5,-99 1105.5,-87 1105.5,-87 1105.5,-81 1111.5,-75 1117.5,-75 1117.5,-75 1207.75,-75 1207.75,-75 1213.75,-75 1219.75,-81 1219.75,-87 1219.75,-87 1219.75,-99 1219.75,-99 1219.75,-105 1213.75,-111 1207.75,-111"/>
<text xml:space="preserve" text-anchor="middle" x="1162.62" y="-94.55" font-family="Helvetica,sans-Serif" font-size="11.00">Neo4j (local Docker)</text>
<text xml:space="preserve" text-anchor="middle" x="1162.62" y="-82.55" font-family="Helvetica,sans-Serif" font-size="11.00">bolt://127.0.0.1:7687</text>
</g>
<!-- neo4j_query -->
<g id="node14" class="node">
<title>neo4j_query</title>
<path fill="#e8eaf6" stroke="#424242" stroke-width="1.2" d="M1442,-114C1442,-114 1350.25,-114 1350.25,-114 1344.25,-114 1338.25,-108 1338.25,-102 1338.25,-102 1338.25,-90 1338.25,-90 1338.25,-84 1344.25,-78 1350.25,-78 1350.25,-78 1442,-78 1442,-78 1448,-78 1454,-84 1454,-90 1454,-90 1454,-102 1454,-102 1454,-108 1448,-114 1442,-114"/>
<text xml:space="preserve" text-anchor="middle" x="1396.12" y="-97.55" font-family="Helvetica,sans-Serif" font-size="11.00">neo4j_query.py</text>
<text xml:space="preserve" text-anchor="middle" x="1396.12" y="-85.55" font-family="Helvetica,sans-Serif" font-size="11.00">(get_causal_context)</text>
</g>
<!-- neo4j&#45;&gt;neo4j_query -->
<g id="edge13" class="edge">
<title>neo4j&#45;&gt;neo4j_query</title>
<path fill="none" stroke="#616161" stroke-width="1.1" d="M1220.26,-93.73C1252.92,-94.16 1294.18,-94.69 1328.42,-95.14"/>
<polygon fill="#616161" stroke="#616161" stroke-width="1.1" points="1328.17,-97.93 1336.21,-95.24 1328.25,-92.33 1328.17,-97.93"/>
<text xml:space="preserve" text-anchor="middle" x="1279" y="-96.78" font-family="Helvetica,sans-Serif" font-size="10.00">drivers/dependents</text>
</g>
<!-- neo4j_ingest&#45;&gt;neo4j -->
<g id="edge12" class="edge">
<title>neo4j_ingest&#45;&gt;neo4j</title>
<path fill="none" stroke="#616161" stroke-width="1.1" d="M968.47,-88.95C1004.31,-89.7 1054.97,-90.76 1095.42,-91.61"/>
<polygon fill="#616161" stroke="#616161" stroke-width="1.1" points="1095.21,-94.41 1103.27,-91.78 1095.33,-88.81 1095.21,-94.41"/>
<text xml:space="preserve" text-anchor="middle" x="1048.12" y="-93.13" font-family="Helvetica,sans-Serif" font-size="10.00">causal_graph.json</text>
</g>
<!-- neo4j_query&#45;&gt;orchestrator -->
<g id="edge16" class="edge">
<title>neo4j_query&#45;&gt;orchestrator</title>
<path fill="none" stroke="#616161" stroke-width="1.1" d="M1454.49,-96.65C1485.95,-97.68 1525.55,-100.07 1560.5,-105.5 1570.68,-107.08 1581.2,-109.07 1591.68,-111.29"/>
<polygon fill="#616161" stroke="#616161" stroke-width="1.1" points="1590.85,-113.97 1599.26,-112.94 1592.04,-108.5 1590.85,-113.97"/>
<text xml:space="preserve" text-anchor="middle" x="1516.25" y="-118.5" font-family="Helvetica,sans-Serif" font-size="10.00">Graph context</text>
<text xml:space="preserve" text-anchor="middle" x="1516.25" y="-107.25" font-family="Helvetica,sans-Serif" font-size="10.00">(extract ≤30 signals)</text>
</g>
<!-- outputs -->
<g id="node16" class="node">
<title>outputs</title>
<path fill="#fce4ec" stroke="#424242" stroke-width="1.2" d="M2028.25,-160C2028.25,-160 1879.5,-160 1879.5,-160 1873.5,-160 1867.5,-154 1867.5,-148 1867.5,-148 1867.5,-136 1867.5,-136 1867.5,-130 1873.5,-124 1879.5,-124 1879.5,-124 2028.25,-124 2028.25,-124 2034.25,-124 2040.25,-130 2040.25,-136 2040.25,-136 2040.25,-148 2040.25,-148 2040.25,-154 2034.25,-160 2028.25,-160"/>
<text xml:space="preserve" text-anchor="middle" x="1953.88" y="-143.55" font-family="Helvetica,sans-Serif" font-size="11.00">Outputs</text>
<text xml:space="preserve" text-anchor="middle" x="1953.88" y="-131.55" font-family="Helvetica,sans-Serif" font-size="11.00">new.v | bundle.json | analysis.md</text>
</g>
<!-- orchestrator&#45;&gt;outputs -->
<g id="edge17" class="edge">
<title>orchestrator&#45;&gt;outputs</title>
<path fill="none" stroke="#616161" stroke-width="1.1" d="M1831,-142C1839.96,-142 1848.9,-142 1857.65,-142"/>
<polygon fill="#616161" stroke="#616161" stroke-width="1.1" points="1857.39,-144.8 1865.39,-142 1857.39,-139.2 1857.39,-144.8"/>
</g>
<!-- gmail -->
<g id="node17" class="node">
<title>gmail</title>
<path fill="#fce4ec" stroke="#424242" stroke-width="1.2" d="M2164.25,-160C2164.25,-160 2113,-160 2113,-160 2107,-160 2101,-154 2101,-148 2101,-148 2101,-136 2101,-136 2101,-130 2107,-124 2113,-124 2113,-124 2164.25,-124 2164.25,-124 2170.25,-124 2176.25,-130 2176.25,-136 2176.25,-136 2176.25,-148 2176.25,-148 2176.25,-154 2170.25,-160 2164.25,-160"/>
<text xml:space="preserve" text-anchor="middle" x="2138.62" y="-137.55" font-family="Helvetica,sans-Serif" font-size="11.00">Gmail report</text>
</g>
<!-- outputs&#45;&gt;gmail -->
<g id="edge18" class="edge">
<title>outputs&#45;&gt;gmail</title>
<path fill="none" stroke="#616161" stroke-width="1.1" d="M2040.63,-142C2058.14,-142 2075.93,-142 2091.4,-142"/>
<polygon fill="#616161" stroke="#616161" stroke-width="1.1" points="2091.06,-144.8 2099.06,-142 2091.06,-139.2 2091.06,-144.8"/>
<text xml:space="preserve" text-anchor="middle" x="2070.62" y="-143.75" font-family="Helvetica,sans-Serif" font-size="10.00">report</text>
</g>
</g>
</svg>
